<svg xmlns="http://www.w3.org/2000/svg" xmlns:xlink="http://www.w3.org/1999/xlink" fill="none" version="1.1" width="50" height="61" viewBox="0 0 50 61"><defs><filter id="master_svg0_955_45267" filterUnits="objectBoundingBox" color-interpolation-filters="sRGB" x="-16" y="-13" width="58" height="58"><feFlood flood-opacity="0" result="BackgroundImageFix"/><feColorMatrix in="SourceAlpha" type="matrix" values="0 0 0 0 0 0 0 0 0 0 0 0 0 0 0 0 0 0 127 0"/><feOffset dy="3" dx="0"/><feGaussianBlur stdDeviation="4"/><feColorMatrix type="matrix" values="0 0 0 0 0 0 0 0 0 0 0 0 0 0 0 0 0 0 0.07999999821186066 0"/><feBlend mode="normal" in2="BackgroundImageFix" result="effect1_dropShadow"/><feBlend mode="normal" in="SourceGraphic" in2="effect1_dropShadow" result="shape"/></filter><clipPath id="master_svg1_955_45267"><rect x="12" y="20" width="26" height="26" rx="13"/></clipPath><clipPath id="master_svg2_955_45922"><rect x="18" y="26" width="14" height="14" rx="0"/></clipPath></defs><g><g><rect x="24" y="0" width="2" height="25" rx="0" fill="#E5E5EE" fill-opacity="1"/></g><g filter="url(#master_svg0_955_45267)"><g clip-path="url(#master_svg1_955_45267)"><rect x="12" y="20" width="26" height="26" rx="13" fill="#FCFCFC" fill-opacity="1"/><g clip-path="url(#master_svg2_955_45922)"><g><path d="M29.500034218750002,31.846126455078124L28.50728421875,31.846126455078124L28.50728421875,29.527896455078125C28.50728421875,27.585476455078126,26.93452421875,26.006866455078125,24.99969421875,26.006866455078125C23.06501421875,26.006866455078125,21.49054421875,27.585476455078126,21.49054421875,29.527896455078125L21.49054421875,31.846126455078124L20.49856621875,31.846126455078124C20.02001521875,31.846126455078124,19.63232421875,32.23541645507812,19.63232421875,32.71582645507812L19.63232421875,39.06416645507812C19.63232421875,39.54526645507812,20.02001521875,39.93466645507812,20.49856621875,39.93466645507812L29.50095421875,39.93466645507812C29.97952421875,39.93466645507812,30.36722421875,39.54526645507812,30.36722421875,39.06416645507812L30.36722421875,32.71580645507812C30.36722421875,32.23540645507813,29.97952421875,31.846096455078126,29.500034218750002,31.846126455078124ZM25.48608421875,36.055666455078125L25.48608421875,37.44146645507813C25.48608421875,37.503466455078126,25.43496421875,37.55616645507813,25.37290421875,37.55616645507813L24.62747421875,37.55616645507813C24.56447421875,37.55616645507813,24.51351421875,37.503466455078126,24.51351421875,37.44146645507813L24.51351421875,36.055666455078125C24.16331421875,35.87554645507812,23.92099421875,35.515976455078125,23.92099421875,35.094346455078124C23.92099421875,34.496656455078124,24.40469421875,34.01124645507812,24.99970421875,34.01124645507812C25.59489421875,34.01124645507812,26.07769421875,34.496656455078124,26.07769421875,35.094326455078125C26.079354218749998,35.515976455078125,25.83626421875,35.87554645507812,25.48608421875,36.055666455078125ZM27.16063421875,31.846126455078124L22.83882421875,31.846126455078124L22.83882421875,29.584896455078123C22.83882421875,28.388826455078124,23.80966421875,27.415486455078124,25.00064421875,27.415486455078124C26.19241421875,27.415486455078124,27.16060421875,28.388826455078124,27.16060421875,29.584896455078123L27.16063421875,31.846126455078124Z" fill="#86909C" fill-opacity="1"/></g></g></g></g></g></svg>