<svg xmlns="http://www.w3.org/2000/svg" xmlns:xlink="http://www.w3.org/1999/xlink" fill="none" version="1.1" width="60" height="60" viewBox="0 0 60 60"><defs><clipPath id="master_svg0_1082_41953"><rect x="0" y="0" width="60" height="60" rx="0"/></clipPath><clipPath id="master_svg1_1082_41955"><rect x="12" y="-17" width="92.00148010253906" height="19.200000762939453" rx="4"/></clipPath></defs><g clip-path="url(#master_svg0_1082_41953)"><g transform="matrix(0.707089364528656,0.7071243524551392,-0.7071243524551392,0.707089364528656,-8.506186366081238,-13.464973032474518)" clip-path="url(#master_svg1_1082_41955)"><rect x="12" y="-17" width="92.00148010253906" height="19.200000762939453" rx="4" fill="#FFFFFF" fill-opacity="1"/><g><path d="M39.269978661499024,-2.2942000953674313L39.083778661499025,-3.1177000953674323Q39.87511866149902,-3.0533000953674314,40.58051866149902,-3.0533000953674314Q41.27159866149903,-3.0533000953674314,41.27159866149903,-3.7658500953674316L41.27159866149903,-12.094620095367432L42.088008661499025,-12.094620095367432L42.088008661499025,-3.568910095367432Q42.088008661499025,-2.2942000953674313,40.866978661499026,-2.2942000953674313L39.269978661499024,-2.2942000953674313ZM39.14106866149902,-9.233620095367431Q38.34614866149902,-5.982320095367432,37.06066866149902,-4.263570095367431L36.37674566149902,-4.868710095367431Q37.67654866149903,-6.576720095367432,38.34614866149902,-9.541560095367432L39.14106866149902,-9.233620095367431ZM44.59451866149902,-9.806540095367431Q45.92654866149903,-6.770080095367431,46.59616866149902,-4.635960095367432L45.89431866149902,-4.152570095367432Q45.16743866149902,-6.451390095367431,43.88195866149903,-9.35536009536743L44.59451866149902,-9.806540095367431ZM51.31196866149902,-4.034400095367431Q49.71856866149902,-3.300400095367431,47.74916866149903,-2.8921000953674323L47.64886866149902,-3.665590095367431Q49.78296866149903,-4.073790095367432,51.31196866149902,-4.754130095367431L51.31196866149902,-4.034400095367431ZM50.334468661499024,-12.130430095367432Q49.432068661499024,-10.060770095367431,48.54046866149902,-8.861220095367432Q49.17786866149902,-8.91852009536743,50.115968661499025,-9.072490095367431Q50.46686866149902,-9.688370095367432,50.83926866149902,-10.390200095367431L51.55546866149902,-10.114480095367432Q49.972768661499025,-7.2105100953674315,48.93796866149903,-5.985900095367431Q50.158968661499024,-6.258030095367432,51.37996866149902,-6.734270095367432L51.37996866149902,-5.985900095367431Q49.553868661499024,-5.352110095367431,47.93536866149903,-5.122940095367431L47.727668661499024,-5.878480095367432Q47.94606866149903,-5.982320095367432,48.08926866149902,-6.114800095367432Q48.740968661499025,-6.759340095367432,49.68626866149902,-8.34560009536743Q48.916468661499025,-8.216690095367433,47.74916866149903,-8.055560095367433L47.552168661499024,-8.796770095367432Q47.727668661499024,-8.861220095367432,47.89236866149902,-9.093970095367432Q48.85916866149903,-10.551330095367431,49.58606866149903,-12.427631095367431L50.334468661499024,-12.130430095367432ZM56.55056866149903,-11.91917009536743L56.55056866149903,-3.497290095367431L57.485168661499024,-3.497290095367431L57.485168661499024,-2.7274000953674324L51.12576866149902,-2.7274000953674324L51.12576866149902,-3.497290095367431L52.08186866149902,-3.497290095367431L52.08186866149902,-11.91917009536743L56.55056866149903,-11.91917009536743ZM52.86246866149902,-3.497290095367431L55.76996866149902,-3.497290095367431L55.76996866149902,-5.502500095367432L52.86246866149902,-5.502500095367432L52.86246866149902,-3.497290095367431ZM52.86246866149902,-6.250870095367431L55.76996866149902,-6.250870095367431L55.76996866149902,-8.424370095367433L52.86246866149902,-8.424370095367433L52.86246866149902,-6.250870095367431ZM52.86246866149902,-9.16917009536743L55.76996866149902,-9.16917009536743L55.76996866149902,-11.160050095367431L52.86246866149902,-11.160050095367431L52.86246866149902,-9.16917009536743ZM59.995268661499026,-10.54417009536743L58.68826866149902,-10.54417009536743L58.68826866149902,-11.314020095367432L62.08636866149902,-11.314020095367432L62.08636866149902,-10.54417009536743L60.81166866149903,-10.54417009536743L60.81166866149903,-5.685120095367432Q61.56356866149902,-5.964410095367431,62.082768661499024,-6.193580095367432L62.082768661499024,-5.398660095367431Q60.66486866149903,-4.793520095367432,58.79926866149903,-4.277890095367432L58.56656866149902,-5.058490095367432Q59.40086866149902,-5.2625900953674325,59.995268661499026,-5.430890095367432L59.995268661499026,-10.54417009536743ZM62.44806866149902,-11.91917009536743L68.54246866149902,-11.91917009536743L68.54246866149902,-11.149310095367431L65.91416866149902,-11.149310095367431Q65.81396866149902,-10.612200095367431,65.68146866149903,-10.085830095367431L68.01606866149902,-10.085830095367431L68.01606866149902,-4.915260095367431L67.24266866149902,-4.915260095367431L67.24266866149902,-9.358950095367431L63.712068661499025,-9.358950095367431L63.712068661499025,-4.915260095367431L62.952868661499025,-4.915260095367431L62.952868661499025,-10.085830095367431L64.89006866149901,-10.085830095367431Q65.04406866149903,-10.551330095367431,65.13356866149903,-11.149310095367431L62.44806866149902,-11.149310095367431L62.44806866149902,-11.91917009536743ZM66.37606866149902,-4.893780095367431Q67.76186866149902,-3.8804300953674318,68.66416866149902,-2.913600095367432L68.09126866149902,-2.3407000953674313Q67.26406866149902,-3.300400095367431,65.84616866149902,-4.388890095367431L66.37606866149902,-4.893780095367431ZM65.03336866149903,-8.657120095367432L65.82466866149902,-8.657120095367432L65.82466866149902,-6.7629200953674315Q65.76016866149902,-4.972550095367431,64.89366866149902,-3.9162400953674315Q64.02716866149902,-2.9351000953674315,62.08636866149902,-2.3765000953674313L61.656668661499026,-3.056900095367432Q63.550868661499024,-3.5724900953674315,64.29566866149902,-4.431860095367432Q64.99036866149902,-5.334210095367432,65.03336866149903,-6.7629200953674315L65.03336866149903,-8.657120095367432ZM78.28196866149902,-11.772360095367432L78.28196866149902,-2.2942000953674313L77.47996866149902,-2.2942000953674313L77.47996866149902,-3.128500095367432L71.40696866149902,-3.128500095367432L71.40696866149902,-2.2942000953674313L70.60496866149902,-2.2942000953674313L70.60496866149902,-11.772360095367432L78.28196866149902,-11.772360095367432ZM71.40696866149902,-3.898330095367431L77.47996866149902,-3.898330095367431L77.47996866149902,-5.7316700953674315L71.40696866149902,-5.7316700953674315L71.40696866149902,-3.898330095367431ZM71.40696866149902,-6.480040095367432L77.47996866149902,-6.480040095367432L77.47996866149902,-8.424370095367433L71.40696866149902,-8.424370095367433L71.40696866149902,-6.480040095367432ZM71.40696866149902,-9.16917009536743L77.47996866149902,-9.16917009536743L77.47996866149902,-11.00250009536743L71.40696866149902,-11.00250009536743L71.40696866149902,-9.16917009536743Z" fill="#359DFA" fill-opacity="1"/></g></g></g></svg>