<svg xmlns="http://www.w3.org/2000/svg" fill="none" viewBox="0 0 54 26" class="design-iconfont">
  <defs>
    <clipPath id="2c0br4yk1__tt7vs07gpa">
      <rect x="6" y="7" width="12" height="12" rx="0"/>
    </clipPath>
  </defs>
  <path d="M0,13C0,20.1797,5.8203,26,13,26L47.6487,26C49.18,26,50.4778,24.873,50.6925,23.3569L53.4764,3.69762C53.7529,1.74522,52.2374,0,50.2655,0L13,0C5.8203,0,0,5.8203,0,13Z" fill="#FFF"/>
  <path d="M25.56641,18.57L25.36328,17.671599999999998Q26.22656,17.7419,26.99609,17.7419Q27.75,17.7419,27.75,16.96453L27.75,7.878593L28.64062,7.878593L28.64062,17.1794Q28.64062,18.57,27.30859,18.57L25.56641,18.57ZM25.42578,10.999690000000001Q24.55859,14.54656,23.15625,16.42156L22.410156,15.76141Q23.82812,13.898119999999999,24.55859,10.66375L25.42578,10.999690000000001ZM31.375,10.374690000000001Q32.8281,13.687190000000001,33.5586,16.01531L32.793,16.542659999999998Q32,14.034839999999999,30.597659999999998,10.86687L31.375,10.374690000000001ZM38.7031,16.67156Q36.9648,17.4723,34.8164,17.9177L34.707,17.073900000000002Q37.0352,16.628590000000003,38.7031,15.88641L38.7031,16.67156ZM37.6367,7.839531Q36.6523,10.097339999999999,35.6797,11.405940000000001Q36.375,11.343440000000001,37.3984,11.17547Q37.7812,10.503589999999999,38.1875,9.73797L38.9688,10.03875Q37.2422,13.20672,36.1133,14.54266Q37.4453,14.24578,38.7773,13.72625L38.7773,14.54266Q36.7852,15.23406,35.0195,15.48406L34.793,14.659839999999999Q35.0312,14.54656,35.1875,14.40203Q35.8984,13.69891,36.9297,11.968440000000001Q36.0898,12.10906,34.8164,12.284839999999999L34.6016,11.47625Q34.793,11.405940000000001,34.9727,11.15203Q36.0273,9.562190000000001,36.8203,7.515312L37.6367,7.839531ZM44.418,8.07L44.418,17.2575L45.4375,17.2575L45.4375,18.0973L38.5,18.0973L38.5,17.2575L39.543,17.2575L39.543,8.07L44.418,8.07ZM40.3945,17.2575L43.5664,17.2575L43.5664,15.07L40.3945,15.07L40.3945,17.2575ZM40.3945,14.253589999999999L43.5664,14.253589999999999L43.5664,11.8825L40.3945,11.8825L40.3945,14.253589999999999ZM40.3945,11.07L43.5664,11.07L43.5664,8.89812L40.3945,8.89812L40.3945,11.07Z" fill="#359DFA"/>
  <g clip-path="url(#2c0br4yk1__tt7vs07gpa)">
    <path d="M12.05687875,13.421721015625C13.08664875,12.888641015625,13.730218749999999,11.822831015624999,13.72250875,10.663281015625C13.770568749999999,8.981461015625,12.420288750000001,7.592041015625,10.73778875,7.592041015625C9.05527875,7.592041015625,7.70499875,8.981461015625,7.75306875,10.663281015625C7.74986875,11.834881015625001,8.41101875,12.907051015625001,9.45931875,13.430251015625C7.50471875,13.628821015625,6.02364715,15.284441015625,6.043159366,17.249001015624998L6.043159366,17.462281015625003C6.043159366,18.025741015625,6.41894075,18.384441015625,7.1875687500000005,18.546941015625002C8.03545875,18.671441015625,8.89305875,18.717141015625,9.74937875,18.683441015625L11.86796875,18.683441015625C13.86631875,18.683441015625,15.59125875,18.683441015625,15.59125875,17.462281015625003L15.59125875,17.249001015624998C15.61398875,15.238241015625,14.06312875,13.559401015625,12.05687875,13.422941015625L12.05687875,13.421721015625Z" fill="#359DFA"/>
    <path d="M13.706781857299804,12.5357542578125Q13.502003857299805,12.8748942578125,13.239589691199805,13.1524842578125Q14.208271857299804,13.4883642578125,14.952226857299804,14.2937042578125Q16.110526857299803,15.5476142578125,16.091266857299804,17.2488742578125L16.091266857299804,17.4621642578125Q16.091266857299804,17.9615942578125,15.839216857299805,18.3129942578125C17.081786857299804,18.2675242578125,17.999766857299804,18.0713742578125,17.999766857299804,17.2253342578125L17.999766857299804,17.032974257812498C18.020266857299806,15.2194742578125,16.621546857299805,13.7053242578125,14.812116857299804,13.582254257812501L14.812116857299804,13.5811542578125C15.740866857299805,13.100364257812501,16.321296857299807,12.1391142578125,16.314336857299804,11.0933142578125C16.357696857299803,9.5764842578125,15.139876857299804,8.3233642578125,13.622420857299804,8.3233642578125C13.549331857299805,8.3233642578125,13.476936857299805,8.3262714778125,13.405344857299804,8.3319753478125Q14.258016857299804,9.3274342578125,14.222551857299806,10.6686742578125Q14.226944857299804,11.674314257812501,13.706781857299804,12.5357542578125Z" fill-rule="evenodd" fill="#359DFA"/>
  </g>
</svg>
