<?xml version="1.0" standalone="no"?><!DOCTYPE svg PUBLIC "-//W3C//DTD SVG 1.1//EN" "http://www.w3.org/Graphics/SVG/1.1/DTD/svg11.dtd"><svg t="1632714595952" class="icon" viewBox="0 0 1024 1024" version="1.1" xmlns="http://www.w3.org/2000/svg" p-id="1250" xmlns:xlink="http://www.w3.org/1999/xlink" width="200" height="200"><defs><style type="text/css"></style></defs><path d="M931.84 380.904186v154.635907l35.316093 43.008-68.096 61.44-62.464-61.44 37.387907-43.52V406.504186C672.744186 491.996279 617.972093 519.144186 573.44 539.624186a136.692093 136.692093 0 0 1-121.344 3.072c-44.043907-16.907907-245.259907-96.768-349.707907-148.48-69.632-34.816-74.24-56.832 1.547907-86.528 98.816-38.4 251.892093-100.864 337.92-134.667907 50.676093-21.492093 78.324093-32.756093 124.916093-9.204093 83.979907 36.352 265.216 110.08 360.459907 151.04 83.444093 38.4 27.648 50.688 4.596093 66.048zM583.156093 603.648c48.651907-20.48 114.187907-54.784 186.379907-87.04v254.452093c-68.619907 66.56-160.267907 102.923907-256 101.899907-99.851907 2.56-196.608-34.304-269.824-101.888V532.980093c55.796093 23.04 117.236093 43.52 192.512 69.632 46.580093 20.992 100.340093 21.504 146.932093 1.024z" fill="#FFFFFF" p-id="1251"></path><path d="M503.307907 896.512c-101.888 0-199.68-38.4-274.944-108.032l-7.168-6.667907V498.699907L252.939907 512c44.532093 18.432 93.184 35.328 150.016 54.772093l41.472 14.347907c40.96 17.92 86.016 18.932093 125.952 3.572093l4.608-2.036093c24.576-10.24 53.248-24.064 84.992-39.424 31.232-14.848 65.012093-31.232 100.852093-47.104l32.267907-14.336v299.52l-7.168 6.656c-72.192 70.132093-166.912 108.544-267.787907 108.544h-4.596093c-3.584-0.512-6.667907 0-10.24 0zM266.763907 761.332093c68.096 59.892093 157.172093 92.16 246.272 89.088h4.096c86.016 0 166.912-31.232 229.376-89.088V551.936c-20.992 9.728-40.96 19.456-59.904 28.672h7.68l-101.888 44.032c-52.747907 22.528-113.152 22.528-165.387907-1.024l-39.412093-13.824c-44.544-15.36-83.968-29.184-120.832-43.52V761.332093z m631.296-90.112l-93.184-91.648 46.08-53.248v-84.992C706.56 503.296 646.667907 530.932093 606.219907 549.888l-23.552 10.752c-42.507907 22.528-95.232 24.052093-140.288 3.072-55.296-22.027907-248.32-98.827907-350.208-148.992-40.96-20.48-67.584-39.424-66.56-67.584 1.536-29.696 34.292093-46.592 70.132093-60.416 52.747907-20.48 120.843907-48.128 185.867907-74.24 56.832-23.04 112.128-45.056 152.052093-60.928 52.235907-22.027907 87.563907-36.864 143.883907-8.192a11801.409488 11801.409488 0 0 0 163.328 68.096c71.168 29.696 145.92 60.416 196.096 82.432 29.696 13.812093 57.344 29.696 57.856 55.296 0.512 24.052093-22.027907 35.84-38.4 44.532093-0.512 0.523907-1.024 0.523907-1.547907 1.035907v133.12l44.043907 53.248-100.864 90.112z m-30.72-94.208l31.744 31.232 35.84-32.267907-26.624-32.244093V368.64l10.24-6.667907c4.608-3.060093 10.24-6.132093 15.872-9.204093 2.048-1.024 5.12-2.56 7.68-4.096-4.608-3.072-12.288-7.68-24.064-12.8-49.664-21.504-123.904-52.224-195.072-81.92-64-26.624-125.44-52.224-164.864-69.12-38.912-19.456-57.344-11.787907-107.008 9.216a15864.427163 15864.427163 0 0 0-152.064 60.928c-65.536 26.112-133.632 53.76-186.368 74.24-25.088 9.728-35.328 16.384-38.912 19.968 3.072 3.572093 13.312 11.776 38.912 24.576 100.352 49.652093 291.84 125.952 348.16 147.968 33.28 15.36 71.168 14.336 101.888-2.048l24.052093-11.264c43.531907-20.48 109.067907-51.2 278.027907-122.88l31.744-13.312v171.52l-29.184 33.28z" fill="#FFFFFF" p-id="1252"></path></svg>