<?xml version="1.0" standalone="no"?><!DOCTYPE svg PUBLIC "-//W3C//DTD SVG 1.1//EN" "http://www.w3.org/Graphics/SVG/1.1/DTD/svg11.dtd"><svg t="1632714585721" class="icon" viewBox="0 0 1024 1024" version="1.1" xmlns="http://www.w3.org/2000/svg" p-id="1122" xmlns:xlink="http://www.w3.org/1999/xlink" width="200" height="200"><defs><style type="text/css"></style></defs><path d="M827.549538 67.702154h-80.344615v372.972308L657.329231 374.705231l-89.875693 66.008615V67.702154H197.947077a96.728615 96.728615 0 0 0-96.413539 96.374154v693.799384a96.728615 96.728615 0 0 0 96.413539 96.413539h629.484308a96.728615 96.728615 0 0 0 96.413538-96.413539V163.997538c0-53.011692-43.323077-96.295385-96.295385-96.295384zM249.304615 787.692308c0 21.188923-14.493538 38.478769-32.098461 38.478769-17.723077 0-32.098462-17.289846-32.098462-38.478769V234.180923c0-21.188923 14.493538-38.478769 32.098462-38.478769 17.723077 0 32.098462 17.289846 32.098461 38.478769V787.692308z" fill="#FFFFFF" p-id="1123"></path></svg>