<svg xmlns="http://www.w3.org/2000/svg" fill="none" viewBox="0 0 54 26" class="design-iconfont">
  <defs>
    <clipPath id="vc0eg3gtt__2izzeprfua">
      <rect x="8" y="7" width="12" height="12" rx="0"/>
    </clipPath>
  </defs>
  <path d="M0.523615,22.3024C0.247137,24.2548,1.76263,26,3.73452,26L41,26C48.1797,26,54,20.1797,54,13C54,5.8203,48.1797,0,41,0L6.35128,0C4.82002,0,3.52223,1.12696,3.30753,2.64309L0.523615,22.3024Z" fill="#FFF"/>
  <path d="M29.5625,9.159839999999999L25.38672,9.159839999999999L25.38672,8.32L34.6367,8.32L34.6367,9.159839999999999L30.44922,9.159839999999999L30.44922,17.07L35.1523,17.07L35.1523,17.9098L24.75,17.9098L24.75,17.07L29.5625,17.07L29.5625,9.159839999999999ZM45.6797,8.003589999999999L45.6797,15.32L47.4062,15.32L47.4062,16.12469L43.7812,16.12469Q45.6328,16.80828,47.1562,17.769199999999998L46.675799999999995,18.4997Q44.9453,17.359099999999998,43.2188,16.722340000000003L43.625,16.12469L40.2656,16.12469L40.8906,16.66375Q39.5,17.7458,37.5156,18.5231L36.9883,17.8395Q38.957,17.073900000000002,40.2422,16.12469L36.75,16.12469L36.75,15.32L38.4766,15.32L38.4766,8.003589999999999L45.6797,8.003589999999999ZM39.3555,15.32L44.800799999999995,15.32L44.800799999999995,14.280940000000001L39.3555,14.280940000000001L39.3555,15.32ZM39.3555,13.57L44.800799999999995,13.57L44.800799999999995,12.32L39.3555,12.32L39.3555,13.57ZM39.3555,11.60906L44.800799999999995,11.60906L44.800799999999995,10.57L39.3555,10.57L39.3555,11.60906ZM39.3555,9.85906L44.800799999999995,9.85906L44.800799999999995,8.82L39.3555,8.82L39.3555,9.85906Z" fill="#359DFA"/>
  <g clip-path="url(#vc0eg3gtt__2izzeprfua)">
    <path d="M8.14990234375,8.7590447265625C8.14990234375,8.2065407265625,8.59339834375,7.7590377265625,9.14989734375,7.7590377265625L12.14989234375,7.7590377265625C12.70240234375,7.7590377265625,13.14990234375,8.2025447265625,13.14990234375,8.7590447265625L13.14990234375,11.7590447265625C13.14990234375,12.311534726562499,12.70639234375,12.7590347265625,12.14989234375,12.7590347265625L9.14989734375,12.7590347265625C8.59740534375,12.7590347265625,8.14990234375,12.3155447265625,8.14990234375,11.7590447265625L8.14990234375,8.7590447265625ZM16.37589234375,7.5330417265625C16.765932343750002,7.1434457265625,17.39784234375,7.1434457265625,17.78788234375,7.5330417265625L19.55790234375,9.3030447265625C19.947902343750002,9.6930347265625,19.94690234375,10.3255347265625,19.55790234375,10.7150347265625L17.78788234375,12.4850247265625C17.39788234375,12.8750247265625,16.764902343750002,12.874034726562499,16.37589234375,12.4850247265625L14.60589234375,10.7150347265625C14.21630234375,10.3249847265625,14.21630234375,9.6930847265625,14.60589234375,9.3030447265625L16.37589234375,7.5330417265625ZM8.14990234375,14.7590347265625C8.14990234375,14.2065347265625,8.59339834375,13.7590347265625,9.14989734375,13.7590347265625L12.14989234375,13.7590347265625C12.70240234375,13.7590347265625,13.14990234375,14.2025347265625,13.14990234375,14.7590347265625L13.14990234375,17.7590447265625C13.14990234375,18.311544726562502,12.70639234375,18.7590447265625,12.14989234375,18.7590447265625L9.14989734375,18.7590447265625C8.59740534375,18.7590447265625,8.14990234375,18.3155447265625,8.14990234375,17.7590447265625L8.14990234375,14.7590347265625ZM14.14989234375,14.7590347265625C14.14989234375,14.2065347265625,14.59339234375,13.7590347265625,15.14989234375,13.7590347265625L18.14989234375,13.7590347265625C18.702402343750002,13.7590347265625,19.14990234375,14.2025347265625,19.14990234375,14.7590347265625L19.14990234375,17.7590447265625C19.14990234375,18.311544726562502,18.70640234375,18.7590447265625,18.14989234375,18.7590447265625L15.14989234375,18.7590447265625C14.59740234375,18.7590447265625,14.14989234375,18.3155447265625,14.14989234375,17.7590447265625L14.14989234375,14.7590347265625Z" fill="#359DFA"/>
  </g>
</svg>
