<svg xmlns="http://www.w3.org/2000/svg" fill="none" viewBox="0 0 54 26" class="design-iconfont">
  <defs>
    <clipPath id="jtj7n1gtn__hwy0umsaxa">
      <rect x="8" y="7" width="12" height="12" rx="0"/>
    </clipPath>
  </defs>
  <g style="mix-blend-mode:passthrough">
    <path d="M0.523615,22.3024C0.247137,24.2548,1.76263,26,3.73452,26L41,26C48.1797,26,54,20.1797,54,13C54,5.8203,48.1797,0,41,0L6.35128,0C4.82002,0,3.52223,1.12696,3.30753,2.64309L0.523615,22.3024Z" fill="#FFF"/>
    <path d="M25.85547,8.76531L29.05859,8.76531L29.05859,7.530938L29.92188,7.530938L29.92188,8.76531L32.63281,8.76531L32.63281,9.437190000000001Q33.42969,8.63641,34.0156,7.831719L34.6523,8.30828Q33.60938,9.687190000000001,32.30859,10.82L35.25,10.82L35.25,11.64813L31.27734,11.64813Q30.33984,12.29656,29.40625,12.82L34.543,12.82L34.543,13.60125L28.58984,13.60125L28.19531,14.82L33.94531,14.82Q33.8125,17.359099999999998,33.40234,17.8473Q32.99609,18.323900000000002,31.76953,18.323900000000002Q30.91406,18.323900000000002,30.26953,18.2536L29.99219,17.4958Q30.98828,17.5544,31.59375,17.5544Q32.51562,17.5544,32.76953,17.238Q32.97266,16.92547,33.07812,15.57781L27.17578,15.57781L27.71484,13.67156Q26.3125,14.28875,24.824219,14.73797L24.476562,13.968440000000001Q27.48438,13.07391,29.8125,11.64813L24.992188,11.64813L24.992188,10.82L29.05859,10.82L29.05859,9.57L25.85547,9.57L25.85547,8.76531ZM31,10.82Q31.83984,10.20672,32.5,9.57L29.92188,9.57L29.92188,10.82L31,10.82ZM44.0547,7.558282L44.886700000000005,7.558282L44.886700000000005,9.784839999999999L47.043,9.784839999999999Q47.043,15.71844,46.8672,17.113Q46.707,18.5973,45.3594,18.5973L44.511700000000005,18.546599999999998L44.3047,17.7575Q44.824200000000005,17.7927,45.226600000000005,17.7927Q45.9414,17.7927,46.0625,16.76922Q46.1797,15.82,46.2148,10.61297L44.8711,10.61297Q44.6406,16.07781,42.3789,18.7145L41.7344,18.0544Q43.8398,15.64031,44.0312,10.61297L42.6172,10.61297L42.6172,9.784839999999999L44.0547,9.784839999999999L44.0547,7.558282ZM41.914100000000005,17.796599999999998Q40.148399999999995,17.9723,36.8438,18.155900000000003L36.7227,17.351300000000002Q38.1172,17.3122,39.2578,17.2419L39.2578,16.28094L37.168,16.28094L37.168,15.57L39.2578,15.57L39.2578,14.780940000000001L36.9141,14.780940000000001L36.9141,14.07L39.2578,14.07L39.2578,13.32L37.1094,13.32L37.1094,11.10906L39.2578,11.10906L39.2578,10.45672L37.9375,10.45672L37.9375,9.07L36.5195,9.07L36.5195,8.30438L37.9375,8.30438L37.9375,7.558282L38.7305,7.558282L38.7305,8.30438L40.6172,8.30438L40.6172,7.558282L41.4219,7.558282L41.4219,8.30438L42.75,8.30438L42.75,9.07L41.4219,9.07L41.4219,10.45672L40.0625,10.45672L40.0625,11.10906L42.199200000000005,11.10906L42.199200000000005,13.32L40.0625,13.32L40.0625,14.07L42.3906,14.07L42.3906,14.780940000000001L40.0625,14.780940000000001L40.0625,15.57L42.0586,15.57L42.0586,16.28094L40.0625,16.28094L40.0625,17.1872Q41.2188,17.0856,41.914100000000005,16.98797L41.914100000000005,17.796599999999998ZM38.7305,9.07L38.7305,9.82L40.6172,9.82L40.6172,9.07L38.7305,9.07ZM41.457,12.60906L41.457,11.82L40.0625,11.82L40.0625,12.60906L41.457,12.60906ZM39.2578,12.60906L39.2578,11.82L37.8516,11.82L37.8516,12.60906L39.2578,12.60906Z" fill="#359DFA"/>
    <g clip-path="url(#jtj7n1gtn__hwy0umsaxa)">
      <path d="M16.57617171875,9.087780546874999C16.57976171875,9.397270546875,16.830731718750002,9.646770546875,17.14023171875,9.648550546875L17.14683171875,9.648550546875C17.45964171875,9.652210546875,17.715681718749998,9.400610546875,17.71749171875,9.087780546874999L17.717441718750003,7.8701905468749995C17.717441718750003,7.555022546875,17.461911718750002,7.299560546875,17.14674171875,7.299560546875C16.83157171875,7.299560546875,16.576031718750002,7.555022546875,16.576031718750002,7.8701905468749995L16.57617171875,9.087780546874999ZM10.28569171875,9.087780546874999C10.28931171875,9.399840546875,10.54428171875,9.650380546875,10.85635171875,9.648550546875C11.16842171875,9.650380546875,11.42339171875,9.399840546875,11.42701171875,9.087780546874999L11.42711171875,7.8701905468749995C11.42689171875,7.555176546875,11.17142171875,7.299926757875,10.85640171875,7.299926757875C10.541391718749999,7.299926757875,10.28592171875,7.555176546875,10.28570171875,7.8701905468749995L10.28569171875,9.087780546874999ZM18.83901171875,8.533610546875L18.28481171875,8.533610546875L18.28481171875,8.936040546875C18.25221171875,9.543460546875,17.75017171875,10.019250546875,17.14188171875,10.019250546875C16.53359171875,10.019250546875,16.031551718750002,9.543460546875,15.99891171875,8.936040546875L15.99891171875,8.533610546875L11.99768171875,8.533610546875L11.99768171875,8.936040546875C11.99768171875,9.566380546875,11.48669171875,10.077370546875,10.85635171875,10.077370546875C10.226021718750001,10.077370546875,9.71503171875,9.566380546875,9.71503171875,8.936040546875L9.71503171875,8.533610546875L9.15740171875,8.533620546875C8.51272771875,8.533620546875,7.99220194875,9.060060546875,7.99958939555,9.704610546875L7.99958939555,17.453060546875C7.99958939555,18.092460546875,8.51795771875,18.610960546875,9.15740171875,18.610960546875L18.83901171875,18.610860546875C19.47851171875,18.610860546875,19.99681171875,18.092560546875,19.99681171875,17.453060546875L19.99681171875,9.704620546875C20.00421171875,9.060030546875,19.483611718749998,8.533570546875,18.83901171875,8.533610546875ZM16.57813171875,11.720310546875C16.78177171875,11.923940546875,16.79286171875,12.250510546874999,16.60349171875,12.467490546875L13.57708171875,15.478900546875C13.36433171875,15.693620546875,13.01730171875,15.693620546875,12.80454171875,15.478900546875L11.43947171875,14.128830546875001C11.20062171875,13.920380546875,11.188161718749999,13.553300546875,11.41232171875,13.329140546875C11.63648171875,13.104980546875,12.003571718749999,13.117440546874999,12.21201171875,13.356280546875L13.205811718749999,14.320090546875L15.83095171875,11.694940546875C16.04793171875,11.505590546875,16.37450171875,11.516670546875,16.57813171875,11.720310546875Z" fill-rule="evenodd" fill="#359DFA"/>
      <g fill="#FFF">
        <path d="M16.578133125,11.7203055234375C16.781773125,11.9239395234375,16.792853125,12.2505135234375,16.603493125,12.4674865234375L13.577083125,15.4788965234375C13.364333125,15.6936165234375,13.017303125,15.6936165234375,12.804543125,15.4788965234375L11.439468125,14.1288265234375C11.200625925,13.9203865234375,11.188165425,13.5532965234375,11.412323125,13.3291365234375C11.636481125,13.1049765234375,12.003569125,13.1174465234375,12.212010125,13.3562865234375L13.205813125,14.3200865234375L15.830953125,11.6949445234375C16.047933125,11.5055871234375,16.374503125,11.5166716234375,16.578133125,11.7203055234375Z" fill-rule="evenodd"/>
        <path d="M11.242209155,14.3548565234375Q10.964928125,14.1128665234375,10.952443125,13.7450565234375Q10.939958125,13.3772365234375,11.200190625,13.1170065234375Q11.460425125,12.8567765234375,11.828238125,12.8692565234375Q12.196051125,12.8817465234375,12.438043125,13.1590265234375L12.212010125,13.3562865234375L12.420863125,13.1409265234375L13.414673125,14.104726523437499L13.205813125,14.3200865234375L12.993683125,14.107956523437501L15.626023125,11.4756125234375L15.633693125,11.4689170234375Q15.885593125,11.2490845234375,16.219723125,11.2604265234375Q16.553863125,11.2717675234375,16.790273125,11.5081753234375Q17.026673125000002,11.7445795234375,17.038013125,12.0787165234375Q17.049363125,12.4128555234375,16.829523125,12.6647465234375L16.822583125,12.6726965234375L13.788693125,15.6915565234375Q13.542593125,15.939936523437499,13.190813125,15.939936523437499Q12.839043125,15.939936523437499,12.591443125,15.6900565234375L11.228511325,14.3421265234375L11.439468125,14.1288265234375L11.242209155,14.3548565234375ZM11.643774125,13.9089465234375L13.017643125,15.2677465234375Q13.089183125,15.3399365234375,13.190813125,15.3399365234375Q13.292443125,15.3399365234375,13.365483125,15.2662465234375L16.391893125,12.2548285234375L16.603493125,12.4674865234375L16.377473125,12.2702245234375Q16.529543125,12.0959765234375,16.366003125,11.9324365234375Q16.202463125,11.7688995234375,16.028213125,11.9209725234375L15.830953125,11.6949445234375L16.043093125,11.9070765234375L13.209043125,14.7411265234375L11.994190125,13.5629465234375L11.985981125,13.5535465234375Q11.915306125,13.4725565234375,11.807883125,13.4689165234375Q11.700459125,13.4652665234375,11.624455125,13.5412665234375Q11.548451125,13.6172765234375,11.552098125,13.7246965234375Q11.555744125,13.8321265234375,11.636727125,13.9027965234375L11.643774125,13.9089465234375Z"/>
      </g>
    </g>
  </g>
</svg>
