<svg xmlns="http://www.w3.org/2000/svg" fill="none" viewBox="0 0 54 26" class="design-iconfont">
  <defs>
    <clipPath id="0vo5podas__rouyg1ntja">
      <rect x="6" y="7" width="12" height="12" rx="0"/>
    </clipPath>
  </defs>
  <g style="mix-blend-mode:passthrough">
    <path d="M0,13C0,20.1797,5.8203,26,13,26L47.6487,26C49.18,26,50.4778,24.873,50.6925,23.3569L53.4764,3.69762C53.7529,1.74522,52.2374,0,50.2655,0L13,0C5.8203,0,0,5.8203,0,13Z" fill="#FFF"/>
    <path d="M30.21875,7.624687Q31.16406,9.82,33.5,11.48406L33.0312,12.210619999999999Q30.85156,10.67547,29.82422,8.48797Q28.9375,10.33172,27.73438,11.554369999999999L32.0117,11.554369999999999L32.0117,14.36297Q32,15.28875,31.01953,15.35125Q30.54297,15.35125,29.73047,15.30437L29.51562,14.51531Q30.23047,14.57,30.71875,14.57Q31.17188,14.57,31.17188,14.10125L31.17188,12.32L28.5,12.32L28.5,16.91375Q28.5,17.5153,29.07031,17.5153L31.34375,17.5153Q32.1211,17.5153,32.3125,17.1755Q32.5039,16.74578,32.6133,15.6325L33.4141,15.90984Q33.2578,17.6012,32.8867,17.9958Q32.543,18.32,31.57031,18.32L28.74609,18.32Q27.63672,18.32,27.63672,17.2106L27.63672,11.648119999999999Q27.12891,12.085619999999999,26.64844,12.41766L26.19141,11.68328Q28.28516,10.128589999999999,29.44141,7.624687L30.21875,7.624687ZM26.37891,13.159839999999999Q25.74219,13.46453,25.09766,13.73016L25.09766,17.4411Q25.09766,18.57,24.02734,18.57L22.972656,18.57L22.792969,17.652Q23.44141,17.7927,23.73047,17.7927Q24.22266,17.7927,24.22266,17.2262L24.22266,14.066089999999999Q23.34375,14.374690000000001,22.636719,14.58172L22.421875,13.83953Q23.35938,13.62078,24.22266,13.312190000000001L24.22266,10.64812L22.660156,10.64812L22.660156,9.82L24.22266,9.82L24.22266,7.550468L25.09766,7.550468L25.09766,9.82L26.26172,9.82L26.26172,10.64812L25.09766,10.64812L25.09766,12.97625Q25.83984,12.659839999999999,26.37891,12.374690000000001L26.37891,13.159839999999999ZM36.375,9.32Q35.918,10.17937,35.3555,10.86297L34.625,10.39812Q35.7773,9.01922,36.2695,7.398125L37.0938,7.581718Q36.9844,7.902031,36.7461,8.52703L39.9648,8.52703L39.9648,9.32L38.2773,9.32Q38.636700000000005,9.93328,38.8398,10.39812L38.0625,10.68328Q37.8125,10.034839999999999,37.4062,9.32L36.375,9.32ZM41.3164,9.32Q41.0273,9.812190000000001,40.6094,10.37078L39.8945,9.92937Q40.8164,8.80047,41.2305,7.41375L42.0586,7.593437Q41.918,8.034839999999999,41.710899999999995,8.52703L45.3047,8.52703L45.3047,9.32L43.363299999999995,9.32Q43.7969,9.999690000000001,44.0703,10.58953L43.289100000000005,10.86297Q42.9297,10.05047,42.4648,9.32L41.3164,9.32ZM43.5781,14.77703L43.5781,18.57L42.75,18.57L42.75,17.863L37.25,17.863L37.25,18.57L36.4219,18.57L36.4219,14.77703L43.5781,14.77703ZM37.25,17.07L42.75,17.07L42.75,15.57L37.25,15.57L37.25,17.07ZM37.25,13.062190000000001Q36.2305,13.628589999999999,34.9961,14.1325L34.5859,13.347339999999999Q37.6445,12.20672,39.7031,10.48016L40.2773,10.48016Q42.5273,12.30828,45.4844,13.374690000000001L45.0664,14.14422Q43.898399999999995,13.687190000000001,42.773399999999995,13.062190000000001L42.773399999999995,13.60125L37.25,13.60125L37.25,13.062190000000001ZM42.3086,12.79656Q41.039100000000005,12.062190000000001,39.988299999999995,11.15203Q38.9727,12.062190000000001,37.7148,12.79656L42.3086,12.79656Z" fill="#359DFA"/>
    <g clip-path="url(#0vo5podas__rouyg1ntja)">
      <path d="M15.27939,13.61365L11.71123,16.40553C11.58356,16.505470000000003,11.41536,16.53726,11.26003,16.49082C10.99542,16.41177,10.84518,16.13322,10.924199999999999,15.86856L11.49092,13.97167L8.894919999999999,13.2624C8.791129999999999,13.23403,8.69925,13.17295,8.632909999999999,13.08822C8.46283,12.87077,8.50119,12.556460000000001,8.71861,12.38635L12.28677,9.59444C12.414439999999999,9.4945,12.58264,9.46271,12.73797,9.50915C13.00257,9.58821,13.15282,9.86676,13.073789999999999,10.13142L12.50709,12.02816L15.10308,12.73744C15.2069,12.76581,15.29879,12.82695,15.36508,12.91175C15.53518,13.1292,15.49681,13.44351,15.27939,13.61365ZM17.9929,18.424599999999998C17.9705,18.3285,17.9705,18.3285,17.9559,18.2962C17.9356,18.2534,17.9356,18.2534,17.9237,18.232799999999997C17.9122,18.212699999999998,17.9022,18.1965,17.878999999999998,18.1597C17.854100000000003,18.1206,17.8247,18.075400000000002,17.7502,17.9613C17.5923,17.719099999999997,17.4815,17.5457,17.3656,17.3549C17.3191,17.2785,17.273400000000002,17.2016,17.2286,17.124200000000002C17.0884,16.88157,16.9837,16.67714,16.9236,16.52526C16.9152,16.504089999999998,16.9073,16.48271,16.899900000000002,16.46113C17.6098,15.45767,17.9981,14.2576,17.9981,13.000060000000001C17.9981,9.68636,15.3124,7,11.99914,7C8.68589,6.999870038,6,9.68622,6,12.999929999999999C6,16.31364,8.68589,19,11.998999999999999,19C12.85753,19,13.69145,18.819200000000002,14.4582,18.4742C14.51843,18.4471,15.06153,18.496000000000002,15.74391,18.6244C15.91263,18.656399999999998,16.081,18.6903,16.2489,18.726100000000002C16.5828,18.797,17.4358,19,17.497999999999998,19C17.7807,18.9459,17.7807,18.9459,17.959400000000002,18.6935C18.0054,18.506,18.0054,18.506,17.9929,18.424599999999998Z" fill="#359DFA"/>
    </g>
  </g>
</svg>
