<svg xmlns="http://www.w3.org/2000/svg" fill="none" viewBox="0 0 10 10" class="design-iconfont">
  <defs>
    <clipPath id="xrz0eolyn__m3l9lalnsa">
      <rect width="10" height="10" rx="0"/>
    </clipPath>
  </defs>
  <g clip-path="url(#xrz0eolyn__m3l9lalnsa)">
    <path d="M5.385,5.23470875C6.01,4.79970875,6.42,4.07970875,6.42,3.25970875C6.42,1.93470875,5.345,0.85970575,4.02,0.85970575C2.695,0.85970575,1.62,1.93470875,1.62,3.25970875C1.62,4.07470875,2.03,4.79970875,2.655,5.23470875C1.105,5.79470875,0,7.28470875,0,9.01970875C-6.58361e-10,9.20471875,0.149985,9.35470875,0.335,9.35470875C0.520015,9.35470875,0.67,9.20471875,0.67,9.01970875C0.67,7.16970875,2.175,5.66470875,4.025,5.66470875C5.875,5.66470875,7.38,7.16970875,7.38,9.01970875C7.38,9.20471875,7.52998,9.35470875,7.715,9.35470875C7.90001,9.35470875,8.05,9.20471875,8.05,9.01970875C8.045,7.28470875,6.935,5.79470875,5.385,5.23470875ZM4.025,4.99470875C3.07,4.99470875,2.29,4.219708750000001,2.29,3.25970875C2.29,2.2997087499999997,3.065,1.5247057499999999,4.025,1.5247057499999999C4.985,1.5247057499999999,5.76,2.2997087499999997,5.76,3.25970875C5.76,4.219708750000001,4.975,4.99470875,4.025,4.99470875ZM9.93,7.80470875C9.68,6.51470875,8.785,5.40470875,7.73,4.94970875C8.32,4.50470875,8.69,3.80470875,8.69,3.02470875C8.69,1.80970875,7.785,0.78470575,6.58,0.63970572C6.395,0.61470575,6.23,0.74970575,6.21,0.92970575C6.185,1.11470575,6.32,1.27970575,6.5,1.29970575C7.37,1.40470575,8.025,2.14470875,8.025,3.01970875C8.025,3.81470875,7.49,4.50470875,6.72,4.69970875C6.695,4.70470875,6.675,4.71470875,6.655,4.72470875C6.495,4.74970875,6.37,4.88970875,6.37,5.05470875C6.37,5.23970875,6.52,5.38970875,6.705,5.38970875C7.83,5.38970875,9.005,6.55470875,9.27,7.92470875C9.3,8.08470875,9.44,8.19470875,9.595,8.19470875C9.615,8.19470875,9.64,8.189708750000001,9.66,8.189708750000001C9.845,8.164708749999999,9.965,7.98470875,9.93,7.80470875Z" fill="#8392AB"/>
  </g>
</svg>
