<svg xmlns="http://www.w3.org/2000/svg" fill="none" viewBox="0 0 18 18" class="design-iconfont">
  <defs>
    <clipPath id="4q8mwl4qi__ur6l1x3t4a">
      <rect width="18" height="18" rx="0"/>
    </clipPath>
  </defs>
  <g clip-path="url(#4q8mwl4qi__ur6l1x3t4a)">
    <path d="M5.621009885482788,9.001500060272217Q5.621009885482788,9.084390060272217,5.612889885482788,9.166870060272217Q5.604759885482788,9.249360060272217,5.588589885482788,9.330660060272217Q5.5724198854827875,9.411950060272217,5.548359885482788,9.491270060272218Q5.5242998854827885,9.570590060272217,5.4925798854827885,9.647160060272217Q5.460859885482789,9.723740060272217,5.421789885482788,9.796840060272217Q5.382709885482788,9.869940060272217,5.3366598854827885,9.938860060272216Q5.290609885482787,10.007780060272218,5.2380298854827885,10.071850060272217Q5.185449885482788,10.135920060272216,5.126839885482788,10.194530060272218Q5.068229885482788,10.253140060272216,5.0041498854827875,10.305720060272217Q4.940079885482788,10.358310060272217,4.871159885482788,10.404350060272217Q4.802239885482788,10.450400060272216,4.7291398854827875,10.489480060272218Q4.656039885482788,10.528550060272217,4.5794598854827875,10.560270060272217Q4.502889885482788,10.591990060272217,4.423569885482788,10.616050060272217Q4.344249885482788,10.640110060272217,4.262949885482788,10.656280060272216Q4.181659885482788,10.672450060272217,4.099169885482788,10.680580060272217Q4.016679885482788,10.688700060272216,3.9337898854827884,10.688700060272216Q3.850909885482788,10.688700060272216,3.768419885482788,10.680580060272217Q3.685929885482788,10.672450060272217,3.604639885482788,10.656280060272216Q3.523339885482788,10.640110060272217,3.4440198854827884,10.616050060272217Q3.3646998854827883,10.591990060272217,3.288129885482788,10.560270060272217Q3.211547885482788,10.528550060272217,3.138446885482788,10.489480060272218Q3.0653468854827883,10.450400060272216,2.996427885482788,10.404350060272217Q2.927509885482788,10.358310060272217,2.863436885482788,10.305720060272217Q2.799363885482788,10.253140060272216,2.740753885482788,10.194530060272218Q2.6821428854827882,10.135920060272216,2.629559885482788,10.071850060272217Q2.576976885482788,10.007780060272218,2.530926885482788,9.938860060272216Q2.4848768854827883,9.869940060272217,2.445803885482788,9.796840060272217Q2.406730885482788,9.723740060272217,2.375011885482788,9.647160060272217Q2.343291785482788,9.570590060272217,2.3192307854827883,9.491270060272218Q2.295169785482788,9.411950060272217,2.2789992854827883,9.330660060272217Q2.262828685482788,9.249360060272217,2.254704285482788,9.166870060272217Q2.246579885482788,9.084390060272217,2.246579885482788,9.001500060272217Q2.246579885482788,8.918610060272217,2.254704285482788,8.836130060272216Q2.262828685482788,8.753640060272216,2.2789992854827883,8.672340060272216Q2.295169785482788,8.591050060272217,2.3192307854827883,8.511730060272217Q2.343291785482788,8.432410060272217,2.375011885482788,8.355840060272216Q2.406730885482788,8.279259060272217,2.445803885482788,8.206159060272217Q2.4848768854827883,8.133060060272216,2.530926885482788,8.064142060272216Q2.576976885482788,7.995224060272217,2.629559885482788,7.9311520602722165Q2.6821428854827882,7.867079060272217,2.740753885482788,7.808469060272217Q2.799363885482788,7.7498600602722165,2.863436885482788,7.697277060272217Q2.927509885482788,7.644694060272217,2.996427885482788,7.598644060272217Q3.0653468854827883,7.552595060272217,3.138446885482788,7.513522060272217Q3.211547885482788,7.474450060272217,3.288129885482788,7.442730060272217Q3.3646998854827883,7.411011060272217,3.4440198854827884,7.386950260272217Q3.523339885482788,7.362889560272217,3.604639885482788,7.346719160272217Q3.685929885482788,7.330548760272217,3.768419885482788,7.322424390272217Q3.850909885482788,7.314300060272217,3.9337898854827884,7.314300060272217Q4.016679885482788,7.314300060272217,4.099169885482788,7.322424390272217Q4.181659885482788,7.330548760272217,4.262949885482788,7.346719160272217Q4.344249885482788,7.362889560272217,4.423569885482788,7.386950260272217Q4.502889885482788,7.411011060272217,4.5794598854827875,7.442730060272217Q4.656039885482788,7.474450060272217,4.7291398854827875,7.513522060272217Q4.802239885482788,7.552595060272217,4.871159885482788,7.598644060272217Q4.940079885482788,7.644694060272217,5.0041498854827875,7.697277060272217Q5.068229885482788,7.7498600602722165,5.126839885482788,7.808469060272217Q5.185449885482788,7.867079060272217,5.2380298854827885,7.9311520602722165Q5.290609885482787,7.995224060272217,5.3366598854827885,8.064142060272216Q5.382709885482788,8.133060060272216,5.421789885482788,8.206159060272217Q5.460859885482789,8.279259060272217,5.4925798854827885,8.355840060272216Q5.5242998854827885,8.432410060272217,5.548359885482788,8.511730060272217Q5.5724198854827875,8.591050060272217,5.588589885482788,8.672340060272216Q5.604759885482788,8.753640060272216,5.612889885482788,8.836130060272216Q5.621009885482788,8.918610060272217,5.621009885482788,9.001500060272217Z" fill="#A2ADBF"/>
    <path d="M10.682699923248292,9.001500060272217Q10.682699923248292,9.084390060272217,10.674579923248292,9.166870060272217Q10.66644992324829,9.249360060272217,10.650279923248291,9.330660060272217Q10.63410992324829,9.411950060272217,10.61004992324829,9.491270060272218Q10.585989923248292,9.570590060272217,10.554269923248292,9.647160060272217Q10.522549923248292,9.723740060272217,10.483469923248292,9.796840060272217Q10.444399923248291,9.869940060272217,10.398349923248292,9.938860060272216Q10.35229992324829,10.007780060272218,10.299719923248292,10.071850060272217Q10.247129923248291,10.135920060272216,10.188519923248291,10.194530060272218Q10.129909923248292,10.253140060272216,10.06583992324829,10.305720060272217Q10.00175992324829,10.358310060272217,9.932839923248292,10.404350060272217Q9.863919923248291,10.450400060272216,9.790819923248291,10.489480060272218Q9.717719923248291,10.528550060272217,9.641139923248291,10.560270060272217Q9.564559923248291,10.591990060272217,9.48523992324829,10.616050060272217Q9.405919923248291,10.640110060272217,9.324629923248292,10.656280060272216Q9.243329923248291,10.672450060272217,9.160839923248291,10.680580060272217Q9.078349923248291,10.688700060272216,8.99546992324829,10.688700060272216Q8.912579923248291,10.688700060272216,8.830089923248291,10.680580060272217Q8.747599923248291,10.672450060272217,8.66629992324829,10.656280060272216Q8.585009923248291,10.640110060272217,8.50568992324829,10.616050060272217Q8.426369923248291,10.591990060272217,8.349789923248292,10.560270060272217Q8.27320892324829,10.528550060272217,8.200107923248291,10.489480060272218Q8.127006923248292,10.450400060272216,8.058086923248291,10.404350060272217Q7.989167923248291,10.358310060272217,7.925093923248291,10.305720060272217Q7.861020923248291,10.253140060272216,7.802409923248291,10.194530060272218Q7.743798923248291,10.135920060272216,7.691214923248291,10.071850060272217Q7.638630923248291,10.007780060272218,7.592579923248291,9.938860060272216Q7.546529923248291,9.869940060272217,7.507456923248291,9.796840060272217Q7.468382923248291,9.723740060272217,7.436662923248291,9.647160060272217Q7.404942923248291,9.570590060272217,7.380881723248291,9.491270060272218Q7.356820423248291,9.411950060272217,7.340649623248291,9.330660060272217Q7.324478923248291,9.249360060272217,7.316354423248291,9.166870060272217Q7.308229923248291,9.084390060272217,7.308229923248291,9.001500060272217Q7.308229923248291,8.918610060272217,7.316354423248291,8.836130060272216Q7.324478923248291,8.753640060272216,7.340649623248291,8.672340060272216Q7.356820423248291,8.591050060272217,7.380881723248291,8.511730060272217Q7.404942923248291,8.432410060272217,7.436662923248291,8.355840060272216Q7.468382923248291,8.279259060272217,7.507456923248291,8.206159060272217Q7.546529923248291,8.133060060272216,7.592579923248291,8.064142060272216Q7.638630923248291,7.995224060272217,7.691214923248291,7.9311520602722165Q7.743798923248291,7.867079060272217,7.802409923248291,7.808469060272217Q7.861020923248291,7.7498600602722165,7.925093923248291,7.697277060272217Q7.989167923248291,7.644694060272217,8.058086923248291,7.598644060272217Q8.127006923248292,7.552595060272217,8.200107923248291,7.513522060272217Q8.27320892324829,7.474450060272217,8.349789923248292,7.442730060272217Q8.426369923248291,7.411011060272217,8.50568992324829,7.386950260272217Q8.585009923248291,7.362889560272217,8.66629992324829,7.346719160272217Q8.747599923248291,7.330548760272217,8.830089923248291,7.322424390272217Q8.912579923248291,7.314300060272217,8.99546992324829,7.314300060272217Q9.078349923248291,7.314300060272217,9.160839923248291,7.322424390272217Q9.243329923248291,7.330548760272217,9.324629923248292,7.346719160272217Q9.405919923248291,7.362889560272217,9.48523992324829,7.386950260272217Q9.564559923248291,7.411011060272217,9.641139923248291,7.442730060272217Q9.717719923248291,7.474450060272217,9.790819923248291,7.513522060272217Q9.863919923248291,7.552595060272217,9.932839923248292,7.598644060272217Q10.00175992324829,7.644694060272217,10.06583992324829,7.697277060272217Q10.129909923248292,7.7498600602722165,10.188519923248291,7.808469060272217Q10.247129923248291,7.867079060272217,10.299719923248292,7.9311520602722165Q10.35229992324829,7.995224060272217,10.398349923248292,8.064142060272216Q10.444399923248291,8.133060060272216,10.483469923248292,8.206159060272217Q10.522549923248292,8.279259060272217,10.554269923248292,8.355840060272216Q10.585989923248292,8.432410060272217,10.61004992324829,8.511730060272217Q10.63410992324829,8.591050060272217,10.650279923248291,8.672340060272216Q10.66644992324829,8.753640060272216,10.674579923248292,8.836130060272216Q10.682699923248292,8.918610060272217,10.682699923248292,9.001500060272217Z" fill="#A2ADBF"/>
    <path d="M14.060100009155274,10.688700060272216C13.128800009155274,10.688700060272216,12.372900009155273,9.932810060272217,12.372900009155273,9.001520060272217C12.372900009155273,8.070220060272217,13.128800009155274,7.314300060272217,14.060100009155274,7.314300060272217C14.991400009155274,7.314300060272217,15.747400009155273,8.070220060272217,15.747400009155273,9.001520060272217C15.747400009155273,9.932810060272217,14.988400009155274,10.688700060272216,14.060100009155274,10.688700060272216Z" fill="#A2ADBF"/>
  </g>
</svg>
